<svg width="600" height="400" xmlns="http://www.w3.org/2000/svg">
  <defs>
    <linearGradient id="skyGrad" x1="0%" y1="0%" x2="0%" y2="100%">
      <stop offset="0%" style="stop-color:#2A9D8F;stop-opacity:0.3" />
      <stop offset="100%" style="stop-color:#FFF8F0;stop-opacity:0.5" />
    </linearGradient>
    <linearGradient id="mountainGrad" x1="0%" y1="0%" x2="0%" y2="100%">
      <stop offset="0%" style="stop-color:#8B7355;stop-opacity:1" />
      <stop offset="100%" style="stop-color:#5C4A33;stop-opacity:1" />
    </linearGradient>
  </defs>
  
  <rect width="600" height="400" fill="url(#skyGrad)"/>
  
  <polygon points="100,250 300,100 500,250" fill="#B0A08A" opacity="0.6"/>
  
  <polygon points="50,300 250,120 450,300" fill="url(#mountainGrad)"/>
  
  <polygon points="200,300 400,150 600,300" fill="#8B6F47"/>
  
  <polygon points="250,120 270,140 230,140" fill="#FFF8F0"/>
  <polygon points="400,150 420,170 380,170" fill="#FFF8F0"/>
  
  <path d="M 280 160 Q 320 200, 360 240" stroke="#FFF8F0" stroke-width="3" fill="none" opacity="0.7"/>
  
  <polygon points="150,280 160,240 170,280" fill="#3D3221"/>
  <polygon points="155,265 160,240 165,265" fill="#4D3F2B"/>
  <rect x="158" y="280" width="4" height="20" fill="#2C2416"/>
  
  <polygon points="480,260 495,210 510,260" fill="#3D3221"/>
  <polygon points="487,240 495,210 503,240" fill="#4D3F2B"/>
  <rect x="493" y="260" width="4" height="20" fill="#2C2416"/>
  
  <rect y="300" width="600" height="100" fill="#F5E6D3"/>
  
  <text x="300" y="360" font-family="Arial, sans-serif" font-size="24" font-weight="bold" text-anchor="middle" fill="#5C4A33">Cortina Edition</text>
  <text x="300" y="385" font-family="Arial, sans-serif" font-size="14" text-anchor="middle" fill="#8B7355" font-style="italic">"Fiaschetta di grappomilla e vai..."</text>
</svg>
